<?xml version="1.0" encoding="UTF-8" standalone="no"?>
<svg
   xmlns:dc="http://purl.org/dc/elements/1.1/"
   xmlns:cc="http://creativecommons.org/ns#"
   xmlns:rdf="http://www.w3.org/1999/02/22-rdf-syntax-ns#"
   xmlns:svg="http://www.w3.org/2000/svg"
   xmlns="http://www.w3.org/2000/svg"
   xmlns:sodipodi="http://sodipodi.sourceforge.net/DTD/sodipodi-0.dtd"
   xmlns:inkscape="http://www.inkscape.org/namespaces/inkscape"
   inkscape:version="1.0 (4035a4fb49, 2020-05-01)"
   sodipodi:docname="readme_acfunlogo.svg"
   id="svg2125"
   version="1.1"
   viewBox="0 0 225 75"
   height="75"
   width="225">
  <metadata
     id="metadata2131">
    <rdf:RDF>
      <cc:Work
         rdf:about="">
        <dc:format>image/svg+xml</dc:format>
        <dc:type
           rdf:resource="http://purl.org/dc/dcmitype/StillImage" />
        <dc:title>acfunlogo</dc:title>
      </cc:Work>
    </rdf:RDF>
  </metadata>
  <defs
     id="defs2129" />
  <sodipodi:namedview
     inkscape:current-layer="svg2125"
     inkscape:window-maximized="0"
     inkscape:window-y="255"
     inkscape:window-x="60"
     inkscape:cy="38.592514"
     inkscape:cx="89.05519"
     inkscape:zoom="2.9255319"
     showgrid="false"
     id="namedview2127"
     inkscape:window-height="783"
     inkscape:window-width="1891"
     inkscape:pageshadow="2"
     inkscape:pageopacity="0"
     guidetolerance="10"
     gridtolerance="10"
     objecttolerance="10"
     borderopacity="1"
     bordercolor="#666666"
     pagecolor="#ffffff" />
  <!-- Generator: Sketch 56.2 (81672) - https://sketch.com -->
  <title
     id="title2111">acfunlogo</title>
  <desc
     id="desc2113">Created with Sketch.</desc>
  <g
     transform="scale(2.3890909)"
     fill-rule="evenodd"
     fill="none"
     stroke-width="1"
     stroke="none"
     id="acfunlogo">
    <g
       id="分组">
      <rect
         height="30"
         width="92.973083"
         y="0"
         x="0.0015045933"
         id="矩形" />
      <path
         fill="#fd4c5d"
         id="合并形状"
         d="M 14.927264,0.47597462 30.081823,24.247507 23.110188,28.408885 C 22.696204,27.582698 22.252065,26.730477 21.777771,25.852221 21.303477,24.973965 20.756154,23.990285 20.135803,22.901179 L 9.557221,23.499547 7.2288563,28.436083 0.55331357,24.682684 C 3.3015694,19.966794 6.0695868,15.261445 8.8573657,10.566636 11.645145,5.8718276 13.668444,2.5082736 14.927264,0.47597462 Z m -0.134587,11.45058938 -2.987844,6.310063 5.935311,-0.312783 z" />
      <path
         fill="#fd4c5d"
         id="路径-3"
         d="m 41.750564,9.356301 c 0,0 0.242257,4.351768 0.242257,4.351768 -2.355282,0.312783 -6.621707,1.958296 -6.621707,5.113327 0,3.155032 4.347178,3.331822 7.012011,3.00544 0,0 0.215341,4.147779 0.215341,4.147779 -4.562519,0.707162 -11.830247,-0.258387 -12.314762,-6.446057 -0.484515,-6.187669 5.30275,-9.424297 11.46686,-10.172257 z" />
      <path
         fill="#fd4c5d"
         id="路径-4"
         d="m 44.563444,6.5548504 c 1.485927,-0.026671 3.257996,-0.076535 5.316208,-0.149592 2.058212,-0.073057 4.117402,-0.1591862 6.177569,-0.2583862 l 0.09421,4.5149588 -5.773806,0.135993 v 4.215775 l 5.275832,-0.244787 0.08075,4.31097 -5.356585,-0.0408 0.02692,6.949229 h -5.8411 c 0.06281,-2.479601 0.09421,-5.575703 0.09421,-9.288305 0,-3.712602 -0.0314,-7.094288 -0.09421,-10.1450586 z" />
      <path
         fill="#fd4c5d"
         id="路径-5"
         d="m 63.244196,9.6962829 c -0.134587,1.5503171 -0.17945,3.4451501 -0.134587,5.6844971 0.06729,3.35902 -0.07142,6.849316 2.759045,6.949229 3.082055,0.108794 2.866715,-3.359021 2.866715,-6.772439 0,-2.275612 -0.04038,-4.347235 -0.121129,-6.2148683 3.445441,0 5.168162,0 5.168162,0 0,7.3300093 1.440087,17.0398913 -8.425181,16.7679053 -8.705626,-0.240014 -7.281187,-8.381157 -7.361939,-16.4143241 0,0 1.749638,0 5.248914,0 z" />
      <path
         fill="#fd4c5d"
         id="路径-6"
         d="m 76.339565,9.1523119 -0.915195,16.6047141 4.602894,0.149592 -0.05384,-8.268359 c 2.567756,2.053749 4.68078,3.717393 6.339074,4.990934 1.658294,1.273541 3.340638,2.524674 5.047033,3.7534 l 0.969031,-16.8087036 -4.589436,-0.1087942 0.04038,8.3363558 z" />
    </g>
    <rect
       height="30"
       width="94"
       y="5.6843419e-14"
       x="0"
       id="rect2122" />
  </g>
</svg>
